<?xml version="1.0" encoding="UTF-8" standalone="no"?>
<!DOCTYPE svg PUBLIC "-//W3C//DTD SVG 1.1//EN"
 "http://www.w3.org/Graphics/SVG/1.1/DTD/svg11.dtd">
<!-- Generated by graphviz version 7.1.0 (20230121.1956)
 -->
<!-- Title: workflow Pages: 1 -->
<svg width="494pt" height="174pt"
 viewBox="0.00 0.00 494.00 174.00" xmlns="http://www.w3.org/2000/svg" xmlns:xlink="http://www.w3.org/1999/xlink">
<g id="graph0" class="graph" transform="scale(1 1) rotate(0) translate(4 170)">
<title>workflow</title>
<polygon fill="white" stroke="none" points="-4,4 -4,-170 490,-170 490,4 -4,4"/>
<!-- place_0e7766b460fd2a39a2fd81d4a3a636b033b52be4 -->
<g id="node1" class="node">
<title>place_0e7766b460fd2a39a2fd81d4a3a636b033b52be4</title>
<ellipse fill="lightblue" stroke="#333333" cx="36" cy="-36" rx="36" ry="36"/>
<text text-anchor="middle" x="36" y="-33.8" font-family="Arial" font-size="9.00">draft</text>
</g>
<!-- place_61e62b213a1a56f7695845df4fc372a10cb0a73e -->
<g id="node2" class="node">
<title>place_61e62b213a1a56f7695845df4fc372a10cb0a73e</title>
<ellipse fill="none" stroke="#333333" cx="172" cy="-84" rx="36" ry="36"/>
<text text-anchor="middle" x="172" y="-81.8" font-family="Arial" font-size="9.00">review</text>
</g>
<!-- place_0e7766b460fd2a39a2fd81d4a3a636b033b52be4&#45;&gt;place_61e62b213a1a56f7695845df4fc372a10cb0a73e -->
<g id="edge1" class="edge">
<title>place_0e7766b460fd2a39a2fd81d4a3a636b033b52be4&#45;&gt;place_61e62b213a1a56f7695845df4fc372a10cb0a73e</title>
<path fill="none" stroke="#333333" d="M70.47,-47.99C89.16,-54.68 112.53,-63.06 132.04,-70.04"/>
<polygon fill="#333333" stroke="#333333" points="131.24,-71.62 136.53,-71.65 132.42,-68.32 131.24,-71.62"/>
<text text-anchor="middle" x="104" y="-66.8" font-family="Arial" font-size="9.00">review</text>
</g>
<!-- place_48f0f92b349bd93701c099522beb009b85f43956 -->
<g id="node4" class="node">
<title>place_48f0f92b349bd93701c099522beb009b85f43956</title>
<ellipse fill="none" stroke="#333333" cx="450" cy="-66" rx="36" ry="36"/>
<text text-anchor="middle" x="450" y="-63.8" font-family="Arial" font-size="9.00">archived</text>
</g>
<!-- place_0e7766b460fd2a39a2fd81d4a3a636b033b52be4&#45;&gt;place_48f0f92b349bd93701c099522beb009b85f43956 -->
<g id="edge2" class="edge">
<title>place_0e7766b460fd2a39a2fd81d4a3a636b033b52be4&#45;&gt;place_48f0f92b349bd93701c099522beb009b85f43956</title>
<path fill="none" stroke="#333333" d="M72.41,-35.65C107.02,-35.54 161.18,-35.97 208,-39 278.37,-43.55 359.81,-53.7 407.72,-60.18"/>
<polygon fill="#333333" stroke="#333333" points="407.28,-61.89 412.47,-60.82 407.75,-58.42 407.28,-61.89"/>
<text text-anchor="middle" x="241.5" y="-44.8" font-family="Arial" font-size="9.00">archive</text>
</g>
<!-- place_c2807535f28e44fe6c7375dcf90518115529a8fa -->
<g id="node3" class="node">
<title>place_c2807535f28e44fe6c7375dcf90518115529a8fa</title>
<ellipse fill="none" stroke="#333333" cx="311" cy="-130" rx="36" ry="36"/>
<text text-anchor="middle" x="311" y="-127.8" font-family="Arial" font-size="9.00">published</text>
</g>
<!-- place_61e62b213a1a56f7695845df4fc372a10cb0a73e&#45;&gt;place_c2807535f28e44fe6c7375dcf90518115529a8fa -->
<g id="edge3" class="edge">
<title>place_61e62b213a1a56f7695845df4fc372a10cb0a73e&#45;&gt;place_c2807535f28e44fe6c7375dcf90518115529a8fa</title>
<path fill="none" stroke="#333333" d="M206.51,-95.25C225.75,-101.71 250.03,-109.86 270.23,-116.65"/>
<polygon fill="#333333" stroke="#333333" points="269.63,-118.29 274.92,-118.22 270.74,-114.97 269.63,-118.29"/>
<text text-anchor="middle" x="241.5" y="-113.8" font-family="Arial" font-size="9.00">publish</text>
</g>
<!-- place_61e62b213a1a56f7695845df4fc372a10cb0a73e&#45;&gt;place_48f0f92b349bd93701c099522beb009b85f43956 -->
<g id="edge4" class="edge">
<title>place_61e62b213a1a56f7695845df4fc372a10cb0a73e&#45;&gt;place_48f0f92b349bd93701c099522beb009b85f43956</title>
<path fill="none" stroke="#333333" d="M207.91,-80.6C227.6,-78.77 252.66,-76.56 275,-75 320.17,-71.84 372,-69.3 407.27,-67.73"/>
<polygon fill="#333333" stroke="#333333" points="407.22,-69.49 412.14,-67.52 407.07,-65.99 407.22,-69.49"/>
<text text-anchor="middle" x="311" y="-77.8" font-family="Arial" font-size="9.00">archive</text>
</g>
<!-- place_c2807535f28e44fe6c7375dcf90518115529a8fa&#45;&gt;place_48f0f92b349bd93701c099522beb009b85f43956 -->
<g id="edge5" class="edge">
<title>place_c2807535f28e44fe6c7375dcf90518115529a8fa&#45;&gt;place_48f0f92b349bd93701c099522beb009b85f43956</title>
<path fill="none" stroke="#333333" d="M344.12,-114.99C364.22,-105.61 390.2,-93.47 411.28,-83.62"/>
<polygon fill="#333333" stroke="#333333" points="411.92,-85.25 415.71,-81.55 410.44,-82.08 411.92,-85.25"/>
<text text-anchor="middle" x="380.5" y="-105.8" font-family="Arial" font-size="9.00">archive</text>
</g>
</g>
</svg>
